<?xml version="1.0" standalone="no"?>
<!DOCTYPE svg PUBLIC "-//W3C//DTD SVG 1.1//EN" "http://www.w3.org/Graphics/SVG/1.1/DTD/svg11.dtd">
<!--Generator: Xara Designer (www.xara.com), SVG filter version: 6.7.0.0-->
<svg fill="none" fill-rule="evenodd" stroke="black" stroke-width="0.501" stroke-linejoin="bevel" stroke-miterlimit="10" font-family="Times New Roman" font-size="16" style="font-variant-ligatures:none" xmlns:xlink="http://www.w3.org/1999/xlink" xmlns="http://www.w3.org/2000/svg" version="1.1" overflow="visible" width="21pt" height="21pt" viewBox="0 -21 21 21">
 <defs>
	</defs>
 <g id="Layer 1" transform="scale(1 -1)">
  <g id="ClipView" stroke="none" fill-rule="nonzero">
   <rect x="-10.4995" y="-10.4995" width="20.999" height="20.999" rx="0" ry="0" transform="matrix(1 0 0 1 10.499 10.499)"/>
   <clipPath id="ClipPath">
    <path d="M 0,0 L 0,20.999 L 20.999,20.999 L 20.999,0 L 0,0 Z"/>
   </clipPath>
   <g clip-path="url(#ClipPath)">
    <g id="Group_1" stroke-linejoin="miter" stroke-width="0.75">
     <path d="M 19.336,15.46 C 19.336,16.098 18.798,16.615 18.161,16.615 L 15.886,16.615 C 15.774,16.615 15.663,16.602 15.554,16.578 L 13.428,16.105 L 13.428,14.308 L 14.893,14.62 L 14.893,13.364 L 16.292,15.381 L 15.269,12.591 C 14.96,12.517 13.042,12.057 12.775,11.993 C 12.375,11.897 12.132,11.495 12.227,11.099 C 12.322,10.702 12.722,10.455 13.121,10.551 L 16.002,11.241 C 16.242,11.299 16.439,11.473 16.525,11.707 L 17.654,14.789 L 17.27,11.617 C 17.22,11.208 16.807,10.663 16.176,10.512 L 14.916,10.204 L 14.916,0.997 C 14.916,0.446 15.385,0 15.937,0 C 16.488,0 16.935,0.446 16.935,0.997 L 16.935,9.01 L 17.352,9.01 C 17.329,8.863 17.343,9.33 17.362,0.994 C 17.364,0.444 17.81,0 18.36,0 L 18.363,0 C 18.914,0.001 19.338,0.449 19.337,1 C 19.33,2.994 19.337,15.273 19.336,15.46 Z" fill="#2c3e50" marker-start="none" marker-end="none"/>
     <path d="M 19.066,19.163 C 19.066,18.149 18.244,17.327 17.23,17.327 C 16.216,17.327 15.394,18.149 15.394,19.163 C 15.394,20.177 16.216,21 17.23,21 C 18.244,21 19.066,20.177 19.066,19.163 Z" fill="#2c3e50" marker-start="none" marker-end="none"/>
     <path d="M 4.251,11.552 L 3.312,13.778 L 4.708,11.89 C 4.787,11.783 4.891,11.696 5.011,11.636 L 7.867,10.224 C 8.286,10.016 8.788,10.192 8.992,10.604 C 9.197,11.02 9.027,11.523 8.611,11.729 L 5.937,13.051 L 4.662,14.776 L 6.007,13.651 L 6.011,13.649 L 6.011,15.279 C 5.903,15.804 5.438,16.198 4.882,16.198 L 2.772,16.198 C 2.135,16.198 1.619,15.682 1.619,15.046 L 1.619,8.605 L 2.217,5.51 L 0.147,1.426 C -0.097,0.942 0.095,0.351 0.579,0.106 C 1.06,-0.137 1.652,0.051 1.899,0.538 L 4.121,4.922 C 4.22,5.117 4.251,5.339 4.209,5.553 L 3.617,8.605 L 3.957,8.605 L 4.76,5.403 L 4.075,1.138 C 3.989,0.602 4.354,0.098 4.89,0.012 C 5.425,-0.073 5.929,0.291 6.015,0.826 L 6.731,5.291 C 6.752,5.422 6.746,5.556 6.714,5.685 L 6.035,8.605 L 6.035,10.496 L 4.759,11.127 C 4.649,11.198 4.379,11.249 4.251,11.552 Z" fill="#2c3e50" marker-start="none" marker-end="none"/>
     <path d="M 12.807,15.666 C 12.807,16.008 12.529,16.285 12.187,16.285 L 7.29,16.285 C 6.948,16.285 6.67,16.008 6.67,15.666 L 6.67,13.322 L 8.863,12.238 C 9.363,11.991 9.651,11.486 9.647,10.963 L 10.739,10.963 C 10.738,10.968 10.737,10.972 10.737,10.977 L 10.737,12.097 C 10.737,12.171 10.677,12.231 10.603,12.231 L 10.569,12.231 C 10.45,12.231 10.39,12.376 10.474,12.46 L 11.177,13.162 C 11.229,13.215 11.314,13.215 11.366,13.162 L 12.058,12.47 C 12.217,12.589 12.401,12.675 12.6,12.723 L 12.807,12.772 L 12.807,15.666 Z" fill="#2c3e50" marker-start="none" marker-end="none"/>
     <path d="M 4.802,17.01 C 5.301,17.208 5.658,17.611 5.814,18.085 L 4.561,18.522 C 7.096,18.429 6.915,18.435 6.927,18.435 C 7.15,18.435 7.336,18.612 7.344,18.838 C 7.353,19.068 7.172,19.262 6.942,19.271 L 5.758,19.314 C 5.388,20.174 4.399,20.589 3.523,20.243 C 2.63,19.889 2.193,18.88 2.546,17.987 C 2.899,17.094 3.909,16.657 4.802,17.01 Z" fill="#2c3e50" marker-start="none" marker-end="none"/>
    </g>
   </g>
  </g>
 </g>
</svg>
