<?xml version="1.0" standalone="no"?>
<!DOCTYPE svg PUBLIC "-//W3C//DTD SVG 1.1//EN" "http://www.w3.org/Graphics/SVG/1.1/DTD/svg11.dtd">
<!--Generator: Xara Designer (www.xara.com), SVG filter version: 6.7.0.0-->
<svg fill="none" fill-rule="evenodd" stroke="black" stroke-width="0.501" stroke-linejoin="bevel" stroke-miterlimit="10" font-family="Times New Roman" font-size="16" style="font-variant-ligatures:none" xmlns:xlink="http://www.w3.org/1999/xlink" xmlns="http://www.w3.org/2000/svg" version="1.1" overflow="visible" width="24pt" height="24pt" viewBox="0 -24 24 24">
 <defs>
	</defs>
 <g id="Layer 1" transform="scale(1 -1)">
  <g id="ClipView" stroke="none" fill-rule="nonzero">
   <rect x="-11.9995" y="-11.9995" width="23.999" height="23.999" rx="0" ry="0" transform="matrix(1 0 0 1 11.999 11.999)"/>
   <clipPath id="ClipPath">
    <path d="M 0,0 L 0,23.999 L 23.999,23.999 L 23.999,0 L 0,0 Z"/>
   </clipPath>
   <g clip-path="url(#ClipPath)">
    <g id="Group_1" stroke-linejoin="miter" stroke-width="0.75">
     <path d="M 7.5,8.863 C 6.335,8.863 5.391,7.919 5.391,6.754 C 5.391,5.589 6.335,4.646 7.5,4.646 C 8.665,4.646 9.608,5.589 9.608,6.754 C 9.608,7.919 8.665,8.863 7.5,8.863 Z M 7.5,5.837 C 6.993,5.837 6.583,6.248 6.583,6.754 C 6.583,7.261 6.993,7.671 7.5,7.671 C 8.006,7.671 8.417,7.261 8.417,6.754 C 8.417,6.248 8.006,5.837 7.5,5.837 Z" fill="#1a252f" marker-start="none" marker-end="none"/>
     <path d="M 18.619,8.863 C 17.454,8.863 16.51,7.919 16.51,6.754 C 16.51,5.589 17.454,4.646 18.619,4.646 C 19.784,4.646 20.728,5.589 20.728,6.754 C 20.728,7.919 19.784,8.863 18.619,8.863 Z M 18.619,5.837 C 18.113,5.837 17.703,6.248 17.703,6.754 C 17.703,7.261 18.113,7.671 18.619,7.671 C 19.126,7.671 19.536,7.261 19.536,6.754 C 19.536,6.248 19.126,5.837 18.619,5.837 Z" fill="#1a252f" marker-start="none" marker-end="none"/>
     <path d="M 9.872,15.341 C 9.872,15.046 9.63,14.804 9.335,14.804 L 1.922,14.804 C 1.626,14.804 1.385,15.046 1.385,15.341 L 1.385,15.664 C 1.385,15.959 1.626,16.201 1.922,16.201 L 9.335,16.201 C 9.63,16.201 9.872,15.959 9.872,15.664 L 9.872,15.341 Z" fill="#1a252f" marker-start="none" marker-end="none"/>
     <path d="M 22.751,12.196 C 21.978,12.397 21.536,12.523 21.232,13.11 L 20.217,15.165 C 19.913,15.752 19.124,16.231 18.464,16.231 L 17.076,16.231 C 17.076,16.231 16.889,16.227 16.889,16.416 C 16.889,16.846 16.889,18.139 16.889,18.139 C 16.889,18.808 16.511,19.354 15.706,19.354 L 4.39,19.354 C 3.238,19.354 2.691,18.808 2.691,18.139 L 2.691,17.059 C 2.691,17.059 2.691,16.738 3.002,16.738 C 4.585,16.738 9.335,16.738 9.335,16.738 C 9.927,16.738 10.409,16.256 10.409,15.663 L 10.409,15.341 C 10.409,14.749 9.927,14.267 9.335,14.267 L 3.002,14.267 C 3.002,14.267 2.691,14.293 2.691,13.957 C 2.691,13.79 2.691,13.678 2.691,13.585 C 2.691,13.29 3.096,13.29 3.096,13.29 L 7.359,13.29 C 7.952,13.29 8.433,12.808 8.433,12.216 L 8.433,11.893 C 8.433,11.301 7.952,10.819 7.359,10.819 L 3.163,10.819 C 3.163,10.819 2.691,10.828 2.691,10.452 C 2.691,9.799 2.691,7.841 2.691,7.841 C 2.691,7.173 3.238,6.626 3.906,6.626 C 3.906,6.626 4.41,6.626 4.577,6.626 C 4.73,6.626 4.752,6.711 4.752,6.754 C 4.752,8.269 5.985,9.501 7.5,9.501 C 9.015,9.501 10.248,8.269 10.248,6.754 C 10.248,6.711 10.236,6.626 10.352,6.626 C 11.682,6.626 15.769,6.626 15.769,6.626 C 15.876,6.626 15.872,6.717 15.872,6.754 C 15.872,8.269 17.104,9.501 18.619,9.501 C 20.135,9.501 21.367,8.269 21.367,6.754 C 21.367,6.711 21.366,6.626 21.433,6.626 C 22.044,6.626 22.799,6.626 22.799,6.626 C 23.46,6.626 24,7.167 24,7.827 L 24,10.108 C 24,12.029 23.393,12.029 22.751,12.196 Z M 20.467,12.303 C 20.467,12.303 17.917,12.303 17.049,12.303 C 16.908,12.303 16.889,12.44 16.889,12.44 L 16.889,15.287 C 16.889,15.287 16.881,15.397 17.062,15.397 C 17.306,15.397 18.037,15.397 18.037,15.397 C 18.625,15.397 19.327,14.97 19.597,14.448 L 20.5,12.619 C 20.538,12.546 20.579,12.48 20.623,12.422 C 20.655,12.379 20.601,12.303 20.467,12.303 Z" fill="#2c3e50" marker-start="none" marker-end="none"/>
     <path d="M 7.896,11.894 C 7.896,11.598 7.654,11.357 7.359,11.357 L 0.537,11.357 C 0.241,11.357 0,11.598 0,11.894 L 0,12.216 C 0,12.511 0.241,12.753 0.537,12.753 L 7.359,12.753 C 7.654,12.753 7.896,12.511 7.896,12.216 L 7.896,11.894 Z" fill="#1a252f" marker-start="none" marker-end="none"/>
    </g>
   </g>
  </g>
 </g>
</svg>
